<?xml version="1.0" encoding="UTF-8"?>
<svg version="1.1" xmlns="http://www.w3.org/2000/svg" width="512" height="512">
<path d="M0 0 C0.92874939 -0.00832352 1.85749878 -0.01664703 2.81439209 -0.02522278 C5.89078946 -0.04935798 8.96697497 -0.05809912 12.04345703 -0.06469727 C14.17953557 -0.07366074 16.31561346 -0.08278253 18.45169067 -0.09205627 C22.93232755 -0.10855828 27.41288959 -0.11624863 31.89355469 -0.11914062 C37.63617424 -0.12452636 43.37809101 -0.16220959 49.12051201 -0.20788479 C53.5334429 -0.23762066 57.94620384 -0.24486343 62.35922623 -0.24586678 C64.47635238 -0.25007578 66.59347874 -0.2625372 68.71050644 -0.28338432 C71.67211398 -0.31022685 74.63208312 -0.30549433 77.59375 -0.29296875 C78.46873138 -0.30780304 79.34371277 -0.32263733 80.24520874 -0.33792114 C84.66800399 -0.28462882 86.38172082 -0.12631678 89.96000671 2.71708679 C92.79666932 6.45259861 93.02620762 9.27651618 93.24267578 13.85327148 C93.28457031 14.69760742 93.32646484 15.54194336 93.36962891 16.41186523 C93.40894531 17.28456055 93.44826172 18.15725586 93.48876953 19.05639648 C93.53195312 19.94456055 93.57513672 20.83272461 93.61962891 21.74780273 C93.72540568 23.93385611 93.827495 26.12001738 93.92626953 28.30639648 C94.73966797 27.61674805 95.55306641 26.92709961 96.39111328 26.21655273 C117.30432533 8.89528093 141.28953609 -0.10318174 168.48876953 -0.06860352 C169.47447937 -0.06878479 169.47447937 -0.06878479 170.48010254 -0.06896973 C181.46933238 -0.04026676 191.45628981 1.00188011 201.92626953 4.30639648 C202.97041016 4.62995117 204.01455078 4.95350586 205.09033203 5.28686523 C209.90613925 6.98697009 213.50098994 8.56607729 215.92626953 13.30639648 C216.57121412 18.46595318 215.79150817 21.07837248 212.92626953 25.30639648 C211.65779965 26.7165203 210.33751642 28.08123561 208.97729492 29.40307617 C208.1896022 30.17447937 207.40190948 30.94588257 206.59034729 31.74066162 C205.74342819 32.56157288 204.89650909 33.38248413 204.02392578 34.22827148 C202.22857171 35.99345701 200.4336637 37.75909631 198.63916016 39.52514648 C195.81566506 42.29294215 192.98848968 45.05666846 190.15307617 47.81225586 C187.41119184 50.4813003 184.68545927 53.16602701 181.96142578 55.85327148 C181.11653091 56.66608582 180.27163605 57.47890015 179.40113831 58.31634521 C173.64361191 64.02412558 169.81095976 69.38263777 168.35986328 77.45874023 C168.3743771 87.80709618 171.64182978 94.18675974 178.67626953 101.68139648 C185.90509543 108.46241901 191.77829145 110.6994828 201.64111328 110.93530273 C211.48324273 109.05113764 218.02291515 102.8865437 224.76611328 95.88452148 C225.65488663 94.98393005 226.54365997 94.08333862 227.45936584 93.15545654 C229.79678623 90.78402296 232.12325286 88.402913 234.4440918 86.01531982 C237.73185368 82.63667097 241.035679 79.27382939 244.34315491 75.91448975 C246.09869317 74.1297184 247.84843926 72.33922756 249.59178162 70.5425415 C250.38012894 69.73790466 251.16847626 68.93326782 251.98071289 68.10424805 C253.01801796 67.03765961 253.01801796 67.03765961 254.07627869 65.94952393 C256.72436179 63.59754579 258.80156395 63.3179433 262.30126953 62.99389648 C266.64640476 63.36847711 267.82402047 64.3234647 270.92626953 67.30639648 C273.17543227 71.42986151 274.52610136 75.83163223 275.92626953 80.30639648 C276.24982422 81.34022461 276.57337891 82.37405273 276.90673828 83.43920898 C281.64418239 102.2555363 281.03605964 124.86466221 274.92626953 143.30639648 C274.71728027 143.94496582 274.50829102 144.58353516 274.29296875 145.24145508 C269.24522179 160.11245791 261.39270598 173.62753596 250.92626953 185.30639648 C252.21662109 185.3437793 253.50697266 185.38116211 254.83642578 185.41967773 C256.55390102 185.48537351 258.27134768 185.55181958 259.98876953 185.61889648 C261.26010742 185.65273438 261.26010742 185.65273438 262.55712891 185.68725586 C268.02903046 185.91965322 272.09568501 186.6618242 276.92626953 189.30639648 C279.57831384 193.28446294 279.22917242 196.75984738 279.23266602 201.38012695 C279.24098953 202.30887634 279.24931305 203.23762573 279.25788879 204.19451904 C279.28202399 207.27091642 279.29076513 210.34710192 279.29736328 213.42358398 C279.30632676 215.55966253 279.31544855 217.69574041 279.32472229 219.83181763 C279.3412243 224.3124545 279.34891464 228.79301654 279.35180664 233.27368164 C279.35719238 239.01630119 279.3948756 244.75821796 279.4405508 250.50063896 C279.47028667 254.91356986 279.47752944 259.3263308 279.47853279 263.73935318 C279.4827418 265.85647934 279.49520322 267.97360569 279.51605034 270.09063339 C279.54289286 273.05224093 279.53816034 276.01221007 279.52563477 278.97387695 C279.54046906 279.84885834 279.55530334 280.72383972 279.57058716 281.62533569 C279.51835983 285.95974572 279.33258164 287.7698274 276.6388092 291.32717896 C272.87128602 294.07617024 270.26728122 294.4339922 265.70849609 294.41992188 C264.88794739 294.41984634 264.06739868 294.41977081 263.22198486 294.41969299 C262.34580505 294.41453171 261.46962524 294.40937042 260.56689453 294.40405273 C259.21032745 294.40193031 259.21032745 294.40193031 257.82635498 294.39976501 C254.94295927 294.39417559 252.05964171 294.38162501 249.17626953 294.36889648 C247.2192394 294.36388012 245.26220806 294.35931745 243.30517578 294.35522461 C238.512177 294.34420962 233.71923651 294.32695223 228.92626953 294.30639648 C228.74161133 295.01562256 228.55695313 295.72484863 228.36669922 296.45556641 C226.8981673 301.98495295 225.31532842 307.3133094 223.17626953 312.61889648 C222.92675537 313.24062744 222.67724121 313.8623584 222.42016602 314.50292969 C220.03073743 320.32491374 217.15124082 325.85406079 214.14892578 331.38061523 C212.78940831 334.05810123 212.78940831 334.05810123 212.99487305 336.12475586 C214.42687577 339.47898295 217.00514053 341.66917639 219.60595703 344.13842773 C220.77403224 345.27829261 221.94199751 346.41827015 223.10986328 347.55834961 C224.95226497 349.33874975 226.79790292 351.11566573 228.64648438 352.88964844 C230.43331748 354.60970865 232.20745542 356.34214026 233.98095703 358.07592773 C234.80610306 358.8559893 234.80610306 358.8559893 235.6479187 359.65180969 C239.92431954 363.84563089 242.78767727 368.0494783 243.05126953 374.24389648 C239.61433267 383.60000239 228.91199409 391.50215111 221.94970703 398.48608398 C221.33351124 399.10510715 220.71731544 399.72413033 220.08244705 400.36191177 C216.83092756 403.62832347 213.57662093 406.8919264 210.31982422 410.15307617 C206.96289268 413.51552377 203.61536383 416.88717464 200.26987267 420.26099968 C197.68581227 422.86367472 195.09507705 425.45962633 192.50246048 428.05377579 C191.2648251 429.29443334 190.02968591 430.5375863 188.79713058 431.78329086 C187.07683473 433.52064613 185.34731848 435.24828491 183.61523438 436.97387695 C183.11121597 437.48711014 182.60719757 438.00034332 182.08790588 438.52912903 C178.22212843 442.34971182 175.17482515 444.17412851 169.73876953 444.49389648 C159.12979568 441.18946201 150.38728664 428.77381509 142.89892578 420.88842773 C142.05458984 420.0234668 141.21025391 419.15850586 140.34033203 418.26733398 C139.58703613 417.48148926 138.83374023 416.69564453 138.05761719 415.88598633 C136.10149675 414.08234812 136.10149675 414.08234812 133.94262695 414.42700195 C133.277229 414.71720215 132.61183105 415.00740234 131.92626953 415.30639648 C130.81964966 415.77770996 130.81964966 415.77770996 129.69067383 416.25854492 C128.8854126 416.64042969 128.08015137 417.02231445 127.25048828 417.41577148 C126.3465332 417.83874512 125.44257813 418.26171875 124.51123047 418.69750977 C123.55506836 419.14594238 122.59890625 419.594375 121.61376953 420.05639648 C99.44864662 430.30639648 99.44864662 430.30639648 92.92626953 430.30639648 C92.94197998 431.51175049 92.95769043 432.71710449 92.97387695 433.95898438 C93.0283814 438.45224261 93.06269405 442.94547188 93.09106445 447.43896484 C93.10610444 449.37977013 93.12654168 451.32054169 93.15258789 453.26123047 C93.18918248 456.05892281 93.20604401 458.85616382 93.21923828 461.65405273 C93.23472214 462.51474869 93.25020599 463.37544464 93.26615906 464.26222229 C93.26766201 469.70329383 92.57397318 473.51326675 89.92626953 478.30639648 C85.94820308 480.95844079 82.47281864 480.60929937 77.85253906 480.61279297 C76.92378967 480.62111649 75.99504028 480.62944 75.03814697 480.63801575 C71.9617496 480.66215095 68.8855641 480.67089209 65.80908203 480.67749023 C63.67300349 480.68645371 61.53692561 480.6955755 59.40084839 480.70484924 C54.92021151 480.72135125 50.43964947 480.7290416 45.95898438 480.73193359 C40.21636482 480.73731933 34.47444806 480.77500255 28.73202705 480.82067776 C24.31909616 480.85041362 19.90633522 480.8576564 15.49331284 480.85865974 C13.37618668 480.86286875 11.25906032 480.87533017 9.14203262 480.89617729 C6.18042508 480.92301982 3.22045595 480.91828729 0.25878906 480.90576172 C-0.61619232 480.92059601 -1.49117371 480.9354303 -2.39266968 480.95071411 C-6.77016782 480.8979676 -8.53086196 480.72871072 -12.09451294 477.95643616 C-14.60909996 474.5895726 -15.19953644 472.19978621 -15.18725586 468.11035156 C-15.18718033 467.26970657 -15.1871048 466.42906158 -15.18702698 465.5629425 C-15.18186569 464.65972763 -15.17670441 463.75651276 -15.17138672 462.82592773 C-15.1692643 461.43394417 -15.1692643 461.43394417 -15.167099 460.01383972 C-15.16149984 457.0488259 -15.14894751 454.08388749 -15.13623047 451.11889648 C-15.13121536 449.10913195 -15.12665247 447.09936623 -15.12255859 445.08959961 C-15.11153068 440.16183616 -15.09426664 435.23412911 -15.07373047 430.30639648 C-15.78295654 430.12173828 -16.49218262 429.93708008 -17.22290039 429.74682617 C-22.75228694 428.27829425 -28.08064339 426.69545537 -33.38623047 424.55639648 C-34.3188269 424.18212524 -34.3188269 424.18212524 -35.27026367 423.80029297 C-41.09224773 421.41086438 -46.62139478 418.53136778 -52.14794922 415.52905273 C-54.82543521 414.16953527 -54.82543521 414.16953527 -56.89208984 414.375 C-60.24631693 415.80700272 -62.43651037 418.38526748 -64.90576172 420.98608398 C-66.0456266 422.15415919 -67.18560414 423.32212446 -68.32568359 424.48999023 C-70.10608374 426.33239192 -71.88299972 428.17802987 -73.65698242 430.02661133 C-75.37704263 431.81344443 -77.10947425 433.58758237 -78.84326172 435.36108398 C-79.62332329 436.18623001 -79.62332329 436.18623001 -80.41914368 437.02804565 C-84.61296488 441.30444649 -88.81681228 444.16780422 -95.01123047 444.43139648 C-104.36733637 440.99445962 -112.26948509 430.29212105 -119.25341797 423.32983398 C-120.18195272 422.40554029 -120.18195272 422.40554029 -121.12924576 421.46257401 C-124.39565745 418.21105452 -127.65926038 414.95674788 -130.92041016 411.69995117 C-134.28285775 408.34301964 -137.65450862 404.99549079 -141.02833366 401.64999962 C-143.63100871 399.06593922 -146.22696032 396.475204 -148.82110977 393.88258743 C-150.06176732 392.64495206 -151.30492029 391.40981286 -152.55062485 390.17725754 C-154.28798011 388.45696168 -156.01561889 386.72744543 -157.74121094 384.99536133 C-158.25444412 384.49134293 -158.76767731 383.98732452 -159.29646301 383.46803284 C-163.11704581 379.60225539 -164.94146249 376.5549521 -165.26123047 371.11889648 C-161.95679599 360.50992263 -149.54114907 351.76741359 -141.65576172 344.27905273 C-140.79080078 343.4347168 -139.92583984 342.59038086 -139.03466797 341.72045898 C-137.85590088 340.59051514 -137.85590088 340.59051514 -136.65332031 339.43774414 C-134.84968211 337.48162371 -134.84968211 337.48162371 -135.19433594 335.32275391 C-135.48453613 334.65735596 -135.77473633 333.99195801 -136.07373047 333.30639648 C-136.54504395 332.19977661 -136.54504395 332.19977661 -137.02587891 331.07080078 C-137.40776367 330.26553955 -137.78964844 329.46027832 -138.18310547 328.63061523 C-138.6060791 327.72666016 -139.02905273 326.82270508 -139.46484375 325.89135742 C-139.91327637 324.93519531 -140.36170898 323.9790332 -140.82373047 322.99389648 C-151.07373047 300.82877358 -151.07373047 300.82877358 -151.07373047 294.30639648 C-152.27908447 294.32210693 -153.48443848 294.33781738 -154.72631836 294.35400391 C-159.21957659 294.40850835 -163.71280587 294.44282101 -168.20629883 294.47119141 C-170.14710411 294.48623139 -172.08787567 294.50666863 -174.02856445 294.53271484 C-176.82625679 294.56930943 -179.6234978 294.58617097 -182.42138672 294.59936523 C-183.28208267 294.61484909 -184.14277863 294.63033295 -185.02955627 294.64628601 C-190.47062782 294.64778897 -194.28060073 293.95410013 -199.07373047 291.30639648 C-202.51047157 286.15128483 -202.22252519 280.99530648 -202.21899414 274.95532227 C-202.22235275 274.12702911 -202.22571136 273.29873596 -202.22917175 272.44534302 C-202.23865079 269.71411631 -202.24062331 266.98295111 -202.24169922 264.25170898 C-202.24491384 262.34748306 -202.24827807 260.44325739 -202.25178528 258.53903198 C-202.25776887 254.54953438 -202.25962596 250.56005841 -202.2590332 246.57055664 C-202.25893161 241.46740641 -202.27258464 236.3643954 -202.28980541 231.26127815 C-202.30094289 227.32867805 -202.30295187 223.39611142 -202.30242348 219.46349716 C-202.30360092 217.58250321 -202.30800945 215.70150831 -202.31575584 213.82052994 C-202.3255913 211.18567497 -202.32266372 208.55111992 -202.31665039 205.91625977 C-202.3222699 205.14511841 -202.3278894 204.37397705 -202.3336792 203.57946777 C-202.30271071 198.21920551 -202.18135686 192.41402287 -198.19873047 188.43139648 C-194.78199546 186.62253677 -191.69207506 186.18103122 -187.85595703 186.19287109 C-187.03540833 186.19294662 -186.21485962 186.19302216 -185.3694458 186.19309998 C-184.49326599 186.19826126 -183.61708618 186.20342255 -182.71435547 186.20874023 C-181.35778839 186.21086266 -181.35778839 186.21086266 -179.97381592 186.21302795 C-177.0904202 186.21861738 -174.20710265 186.23116795 -171.32373047 186.24389648 C-169.36670034 186.24891285 -167.409669 186.25347552 -165.45263672 186.25756836 C-160.65963794 186.26858335 -155.86669745 186.28584074 -151.07373047 186.30639648 C-150.88907227 185.59717041 -150.70441406 184.88794434 -150.51416016 184.15722656 C-149.04562824 178.62784002 -147.46278936 173.29948356 -145.32373047 167.99389648 C-145.07421631 167.37216553 -144.82470215 166.75043457 -144.56762695 166.10986328 C-142.17819837 160.28787923 -139.29870176 154.75873217 -136.29638672 149.23217773 C-134.93698628 146.55502849 -134.93698628 146.55502849 -135.14233398 144.49023438 C-136.57587892 141.12901304 -139.15433033 138.92153252 -141.75341797 136.43920898 C-142.32198517 135.88200165 -142.89055237 135.32479431 -143.47634888 134.7507019 C-145.90445061 132.37152918 -148.34979099 130.01036603 -150.79394531 127.64770508 C-152.57833476 125.9178081 -154.35348451 124.17879856 -156.12841797 122.43920898 C-156.67851532 121.91400665 -157.22861267 121.38880432 -157.79537964 120.84768677 C-161.94727546 116.77535986 -164.97489649 112.97491392 -165.19873047 106.93139648 C-162.19972027 97.26791919 -151.14810632 89.19956876 -144.09716797 82.12670898 C-143.48097218 81.50768581 -142.86477638 80.88866264 -142.22990799 80.2508812 C-138.9783885 76.9844695 -135.72408187 73.72086657 -132.46728516 70.4597168 C-129.11035362 67.0972692 -125.76282477 63.72561833 -122.4173336 60.35179329 C-119.83327321 57.74911825 -117.24253799 55.15316664 -114.64992142 52.55901718 C-113.41228604 51.31835963 -112.17714685 50.07520666 -110.94459152 48.82950211 C-109.22429567 47.09214684 -107.49477942 45.36450806 -105.76269531 43.63891602 C-105.25867691 43.12568283 -104.75465851 42.61244965 -104.23536682 42.08366394 C-100.36958937 38.26308115 -97.32228609 36.43866446 -91.88623047 36.11889648 C-81.27725661 39.42333096 -72.53474758 51.83897788 -65.04638672 59.72436523 C-64.20205078 60.58932617 -63.35771484 61.45428711 -62.48779297 62.34545898 C-61.35784912 63.52422607 -61.35784912 63.52422607 -60.20507812 64.72680664 C-58.24895769 66.53044484 -58.24895769 66.53044484 -56.09008789 66.18579102 C-55.42468994 65.89559082 -54.75929199 65.60539062 -54.07373047 65.30639648 C-53.33598389 64.9921875 -52.5982373 64.67797852 -51.83813477 64.35424805 C-51.03287354 63.97236328 -50.2276123 63.59047852 -49.39794922 63.19702148 C-48.49399414 62.77404785 -47.59003906 62.35107422 -46.65869141 61.9152832 C-45.7025293 61.46685059 -44.74636719 61.01841797 -43.76123047 60.55639648 C-21.59610756 50.30639648 -21.59610756 50.30639648 -15.07373047 50.30639648 C-15.09729614 48.4450708 -15.09729614 48.4450708 -15.12133789 46.54614258 C-15.17577135 41.92804493 -15.21012939 37.30997549 -15.23852539 32.69165039 C-15.25358145 30.69550808 -15.27403074 28.69939867 -15.30004883 26.70336914 C-15.33657208 23.82877463 -15.35348884 20.95461876 -15.36669922 18.07983398 C-15.38218307 17.19210297 -15.39766693 16.30437195 -15.41362 15.38973999 C-15.41499689 10.28292701 -14.98789472 6.69575782 -12.07373047 2.30639648 C-8.09566401 -0.34564782 -4.62027957 0.0034936 0 0 Z M-10.07373047 191.30639648 C-10.69763672 191.84651367 -11.32154297 192.38663086 -11.96435547 192.94311523 C-21.97742384 201.89624168 -27.89856047 216.2972067 -30.07373047 229.30639648 C-30.13639559 230.74268105 -30.16059393 232.18145198 -30.13623047 233.61889648 C-30.11560547 234.83577148 -30.09498047 236.05264648 -30.07373047 237.30639648 C-25.47428024 233.45734822 -21.09502204 229.47335245 -16.86303711 225.22509766 C-16.28655426 224.65036713 -15.71007141 224.0756366 -15.11611938 223.48348999 C-13.2362075 221.60793349 -11.35992237 219.72879834 -9.48388672 217.84936523 C-8.1712428 216.53739562 -6.85845053 215.22557442 -5.54551697 213.91389465 C-2.80809579 211.17794139 -0.07247596 208.4402032 2.66186523 205.70117188 C6.17479608 202.18251031 9.69224292 198.66840262 13.21102047 195.1555891 C15.91587066 192.4543402 18.61834982 189.75072938 21.32010078 187.046381 C22.61720856 185.74860449 23.9150641 184.45157493 25.21366692 183.15529442 C27.01864686 181.35283753 28.82041845 179.54723532 30.62133789 177.74072266 C31.16203415 177.20205063 31.70273041 176.6633786 32.2598114 176.10838318 C34.7939013 174.05486852 34.7939013 174.05486852 35.92626953 171.30639648 C18.19633592 169.85905497 2.11068539 179.31641279 -10.07373047 191.30639648 Z M102.67686462 247.42027283 C102.0726619 248.02649979 101.46845917 248.63272675 100.84594727 249.25732422 C100.21181915 249.88970001 99.57769104 250.52207581 98.92434692 251.1736145 C96.81698595 253.27655369 94.71332787 255.38315419 92.60986328 257.48999023 C91.15412312 258.94505745 89.69823449 260.39997614 88.24220276 261.85475159 C85.18644832 264.90902861 82.13251808 267.96511526 79.07983398 271.02246094 C75.15642754 274.95156468 71.22855015 278.8761633 67.29930019 282.79942226 C64.29076244 285.80435558 61.28459943 288.81165546 58.27916145 291.8196888 C56.83133542 293.26818442 55.38275929 294.71593068 53.93343925 296.16293144 C51.91226942 298.18157668 49.89430798 300.20337408 47.87719727 302.22607422 C47.27097031 302.83027695 46.66474335 303.43447968 46.04014587 304.05699158 C43.23291256 306.3162762 43.23291256 306.3162762 41.92626953 309.30639648 C55.70057007 310.43082918 69.91275069 304.50966718 80.64111328 296.20483398 C83.17627275 293.99389367 85.55992545 291.69648315 87.92626953 289.30639648 C88.69712891 288.56905273 89.46798828 287.83170898 90.26220703 287.07202148 C100.51591808 276.64333244 107.98449946 261.34489295 108.11376953 246.55639648 C108.05189453 245.48389648 107.99001953 244.41139648 107.92626953 243.30639648 C105.68708629 243.30639648 104.18521219 245.91968254 102.67686462 247.42027283 Z " fill="#000101" transform="translate(217.07373046875,15.693603515625)"/>
<path d="M0 0 C21.78 0 43.56 0 66 0 C66.2165625 9.1575 66.2165625 9.1575 66.4375 18.5 C66.50122803 20.39041016 66.56495605 22.28082031 66.63061523 24.22851562 C66.82894875 34.5268412 65.49164721 42.33816025 60.74169922 51.51879883 C54.61189831 63.77066751 53.95525048 77.56242156 53 91 C52.1342334 90.98952637 51.2684668 90.97905273 50.37646484 90.96826172 C47.09241958 90.93370203 43.80857394 90.90887337 40.52441406 90.89013672 C39.11650499 90.88022187 37.70861567 90.86668588 36.30078125 90.84912109 C1.31552475 90.42430012 -31.20890317 102.10477411 -56.53515625 126.5625 C-57.34855469 127.366875 -58.16195312 128.17125 -59 129 C-59.63808594 129.5775 -60.27617187 130.155 -60.93359375 130.75 C-77.96369903 146.48219887 -88.93446091 170.75859328 -94 193 C-94.20496094 193.82371094 -94.40992188 194.64742187 -94.62109375 195.49609375 C-101.2567393 227.02685089 -93.08451985 263.51133666 -75.82885742 290.39428711 C-56.80401282 319.0908401 -27.77805303 339.56359143 6 347 C6.82113281 347.20367187 7.64226562 347.40734375 8.48828125 347.6171875 C40.00774108 354.27687076 76.52117659 346.07820378 103.39428711 328.82885742 C134.4508969 308.23937494 153.62159149 277.36122178 161 241 C161.84696971 235.92993432 162.13506838 231.00787192 162.09765625 225.87890625 C162.0962413 225.13414536 162.09482635 224.38938446 162.09336853 223.62205505 C162.08781989 221.26882727 162.07527733 218.9156985 162.0625 216.5625 C162.05747835 214.95638159 162.05291661 213.35026168 162.04882812 211.74414062 C162.03786735 207.82938957 162.02063884 203.91471151 162 200 C163.01030273 199.90295776 163.01030273 199.90295776 164.04101562 199.80395508 C185.35098236 198.13413767 185.35098236 198.13413767 205.17797852 190.73266602 C214.49921316 185.60930202 223.85967288 186.44465917 234.1875 186.6875 C243.4996875 186.8421875 243.4996875 186.8421875 253 187 C253 208.78 253 230.56 253 253 C232.75 253.375 232.75 253.375 226.37402344 253.47802734 C224.70245783 253.51323981 223.03090695 253.54916178 221.359375 253.5859375 C220.4945752 253.59729736 219.62977539 253.60865723 218.73876953 253.62036133 C217.90684082 253.64042236 217.07491211 253.6604834 216.21777344 253.68115234 C215.49829529 253.69447601 214.77881714 253.70779968 214.03753662 253.7215271 C211.63076331 254.05046408 210.05603858 254.71033249 208 256 C206.13089035 258.80366448 205.56899988 260.26426225 204.8125 263.4375 C200.20554654 280.77059222 193.63550311 297.56070354 184.23046875 312.8828125 C182.51877902 315.82800562 182.52039401 317.64275807 183 321 C185.66795535 325.52278987 188.89079576 329.10431038 192.67578125 332.6953125 C193.76147441 333.75088394 194.84674909 334.80688594 195.93164062 335.86328125 C197.62989145 337.50547523 199.33179512 339.14340407 201.04125977 340.77392578 C202.7013241 342.361731 204.34556132 343.96459709 205.98828125 345.5703125 C206.50586502 346.05581573 207.02344879 346.54131897 207.55671692 347.04153442 C208.97387695 348.43798828 208.97387695 348.43798828 211 351 C210.74790604 354.84471308 208.6247506 356.76572154 206.00268555 359.41723633 C204.73082649 360.71296318 204.73082649 360.71296318 203.43327332 362.03486633 C202.04897881 363.41946297 202.04897881 363.41946297 200.63671875 364.83203125 C199.68336403 365.79248699 198.73030932 366.75324062 197.77754211 367.71427917 C195.78109206 369.72416586 193.77881203 371.72802549 191.77270508 373.72827148 C189.19988395 376.2951837 186.6458161 378.87990878 184.09622478 381.46986866 C182.13431044 383.45759449 180.16107935 385.43377475 178.18439674 387.40680504 C176.7766492 388.81707406 175.38003307 390.23842607 173.98356628 391.65986633 C173.12620377 392.50792343 172.26884125 393.35598053 171.38549805 394.22973633 C170.63350632 394.9837825 169.88151459 395.73782867 169.10673523 396.51472473 C167 398 167 398 164.89375305 397.88418579 C161.78227234 396.43144778 159.6255569 393.94751664 157.28125 391.50390625 C156.47161804 390.68079201 156.47161804 390.68079201 155.64562988 389.84104919 C153.92310102 388.08852581 152.21081127 386.32645848 150.5 384.5625 C148.78836398 382.80298436 147.07455303 381.04582497 145.35437012 379.29466248 C144.28512588 378.20571754 143.22084419 377.11187162 142.16223145 376.0125885 C138.67948126 372.45955425 136.15527539 370.28857244 131.19921875 369.625 C127.09698695 370.10584768 124.24591283 371.86276974 120.8125 374 C107.00948618 382.15102927 92.3246406 387.48142026 77 392 C71.85744218 393.50487343 71.85744218 393.50487343 68 397 C66.2827468 400.43450639 66.75483538 404.38041761 66.68359375 408.1640625 C66.65561707 409.37002075 66.65561707 409.37002075 66.6270752 410.6003418 C66.55868985 413.60844761 66.49859713 416.61673733 66.4375 419.625 C66.293125 426.34875 66.14875 433.0725 66 440 C44.22 440 22.44 440 0 440 C-0.375 419.75 -0.375 419.75 -0.47802734 413.37402344 C-0.51323981 411.70245783 -0.54916178 410.03090695 -0.5859375 408.359375 C-0.59729736 407.4945752 -0.60865723 406.62977539 -0.62036133 405.73876953 C-0.64042236 404.90684082 -0.6604834 404.07491211 -0.68115234 403.21777344 C-0.70113785 402.13855621 -0.70113785 402.13855621 -0.7215271 401.03753662 C-1.05223739 398.61778829 -1.66658183 397.04697819 -3 395 C-5.68812981 393.80082283 -8.20409908 392.87062374 -11 392 C-11.87269531 391.71850098 -12.74539062 391.43700195 -13.64453125 391.14697266 C-15.57028039 390.52736354 -17.49717274 389.91129904 -19.42504883 389.29833984 C-31.77412237 385.33918471 -42.96127447 380.60195006 -54.20703125 374.1640625 C-55.65142578 373.34035156 -55.65142578 373.34035156 -57.125 372.5 C-58.33542969 371.77296875 -58.33542969 371.77296875 -59.5703125 371.03125 C-62.78969632 369.66482343 -64.5182807 369.42113224 -68 370 C-76.12133278 374.34148702 -82.45567569 382.38599983 -88.73828125 389.00561523 C-90.17393368 390.51347644 -91.62458069 392.00550208 -93.078125 393.49609375 C-93.92793945 394.38482178 -94.77775391 395.2735498 -95.65332031 396.18920898 C-98 398 -98 398 -99.87059021 397.86300659 C-102.67363278 396.7269903 -104.26625991 395.12977159 -106.41723633 393.00268555 C-107.28105423 392.15477951 -108.14487213 391.30687347 -109.03486633 390.43327332 C-109.95793076 389.51041031 -110.88099518 388.5875473 -111.83203125 387.63671875 C-112.79248699 386.68336403 -113.75324062 385.73030932 -114.71427917 384.77754211 C-116.72416586 382.78109206 -118.72802549 380.77881203 -120.72827148 378.77270508 C-123.2951837 376.19988395 -125.87990878 373.6458161 -128.46986866 371.09622478 C-130.45759449 369.13431044 -132.43377475 367.16107935 -134.40680504 365.18439674 C-135.81707406 363.7766492 -137.23842607 362.38003307 -138.65986633 360.98356628 C-139.50792343 360.12620377 -140.35598053 359.26884125 -141.22973633 358.38549805 C-141.9837825 357.63350632 -142.73782867 356.88151459 -143.51472473 356.10673523 C-145 354 -145 354 -144.88418579 351.89375305 C-143.43144778 348.78227234 -140.94751664 346.6255569 -138.50390625 344.28125 C-137.95516342 343.74149536 -137.40642059 343.20174072 -136.84104919 342.64562988 C-135.08852581 340.92310102 -133.32645848 339.21081127 -131.5625 337.5 C-129.80298436 335.78836398 -128.04582497 334.07455303 -126.29466248 332.35437012 C-125.20571754 331.28512588 -124.11187162 330.22084419 -123.0125885 329.16223145 C-119.43048794 325.65098993 -117.25758089 323.14553173 -116.65625 318.13671875 C-117.08287638 314.24375307 -118.40786799 312.11565458 -120.5 308.8125 C-129.54520798 293.85202603 -134.83339808 277.18161334 -140.07421875 260.6015625 C-141.02634428 257.92596923 -141.75934816 256.7028954 -144 255 C-146.65696758 254.11434414 -148.28190083 253.8549738 -151.01245117 253.79467773 C-151.824198 253.77449585 -152.63594482 253.75431396 -153.47229004 253.73352051 C-154.32061401 253.71704468 -155.16893799 253.70056885 -156.04296875 253.68359375 C-157.21792908 253.65561707 -157.21792908 253.65561707 -158.41662598 253.6270752 C-161.34013691 253.55882367 -164.26383181 253.49864548 -167.1875 253.4375 C-173.725625 253.293125 -180.26375 253.14875 -187 253 C-187 231.22 -187 209.44 -187 187 C-167.3125 186.625 -167.3125 186.625 -161.12231445 186.52197266 C-159.49428703 186.48675072 -157.86627456 186.4508277 -156.23828125 186.4140625 C-155.40018921 186.40270264 -154.56209717 186.39134277 -153.6986084 186.37963867 C-147.60564319 186.24059333 -147.60564319 186.24059333 -142 184 C-140.73773463 181.28223358 -139.84591776 178.84916571 -139 176 C-138.41450719 174.17652154 -137.82715501 172.35363942 -137.23828125 170.53125 C-136.77301025 169.06788208 -136.77301025 169.06788208 -136.29833984 167.57495117 C-132.33918471 155.22587763 -127.60195006 144.03872553 -121.1640625 132.79296875 C-120.34035156 131.34857422 -120.34035156 131.34857422 -119.5 129.875 C-119.0153125 129.06804687 -118.530625 128.26109375 -118.03125 127.4296875 C-116.711365 124.31995846 -116.55605589 122.35519296 -117 119 C-119.7475127 114.34103349 -123.03216533 110.69744293 -126.859375 106.9453125 C-127.683237 106.12569534 -127.683237 106.12569534 -128.52374268 105.28952026 C-130.26114792 103.56321695 -132.00541079 101.84403982 -133.75 100.125 C-134.9366601 98.94838261 -136.12286268 97.77130361 -137.30859375 96.59375 C-140.20046788 93.72380355 -143.09850916 90.86022237 -146 88 C-141.19356469 82.22171084 -136.04378048 76.88286481 -130.734375 71.56640625 C-129.85976624 70.68846909 -128.98515747 69.81053192 -128.08404541 68.9059906 C-126.2464704 67.06337723 -124.40755941 65.22209531 -122.56738281 63.38208008 C-120.67922168 61.49244637 -118.79324223 59.60095165 -116.91113281 57.70532227 C-114.19052005 54.96650589 -111.46338513 52.23435244 -108.734375 49.50390625 C-107.88856873 48.65091446 -107.04276245 47.79792267 -106.17132568 46.91908264 C-105.39001282 46.14084641 -104.60869995 45.36261017 -103.80371094 44.56079102 C-103.11565369 43.87130875 -102.42759644 43.18182648 -101.71868896 42.47145081 C-100 41 -100 41 -98 41 C-96.61401367 42.40283203 -96.61401367 42.40283203 -94.98046875 44.3828125 C-90.66227497 49.45817209 -86.02078341 54.16305825 -81.3125 58.875 C-80.47138672 59.72835937 -79.63027344 60.58171875 -78.76367188 61.4609375 C-77.95091797 62.275625 -77.13816406 63.0903125 -76.30078125 63.9296875 C-75.20503784 65.03159424 -75.20503784 65.03159424 -74.0871582 66.15576172 C-71.19939444 68.70742477 -69.01545509 69.86403949 -65.19921875 70.375 C-61.0967072 69.89411953 -58.24634218 68.13674743 -54.8125 66 C-41.34196335 58.06710647 -27.09866789 52.72662194 -12.12060547 48.34521484 C-11.23518066 48.08047363 -10.34975586 47.81573242 -9.4375 47.54296875 C-8.65246094 47.31633545 -7.86742187 47.08970215 -7.05859375 46.85620117 C-4.7474878 45.89497625 -3.56695595 44.93994148 -2 43 C-1.11434414 40.34303242 -0.8549738 38.71809917 -0.79467773 35.98754883 C-0.77449585 35.175802 -0.75431396 34.36405518 -0.73352051 33.52770996 C-0.71704468 32.67938599 -0.70056885 31.83106201 -0.68359375 30.95703125 C-0.65561707 29.78207092 -0.65561707 29.78207092 -0.6270752 28.58337402 C-0.55882367 25.65986309 -0.49864548 22.73616819 -0.4375 19.8125 C-0.293125 13.274375 -0.14875 6.73625 0 0 Z " fill="#828CF1" transform="translate(223,36)"/>
<path d="M0 0 C1.52947266 -0.00580078 1.52947266 -0.00580078 3.08984375 -0.01171875 C8.00215265 -0.00533083 12.67358862 0.08368522 17.5 1.125 C15.86931927 5.33100551 12.75062042 8.0752471 9.57421875 11.140625 C8.37292126 12.32148681 7.17175354 13.50248064 5.97070312 14.68359375 C4.08405127 16.52693898 2.19499094 18.36772353 0.30297852 20.20556641 C-1.52994518 21.98974341 -3.35318194 23.7834109 -5.17578125 25.578125 C-5.73429276 26.11487854 -6.29280426 26.65163208 -6.86824036 27.20465088 C-15.93659594 36.15947556 -20.65370396 46.96627852 -20.9375 59.75 C-20.7396752 66.01657919 -19.95718357 71.35678529 -17.5 77.125 C-17.15582031 77.970625 -16.81164062 78.81625 -16.45703125 79.6875 C-11.10039748 91.02708163 -0.22780242 102.37952558 11.5 107.125 C12.33660156 107.51042969 13.17320312 107.89585937 14.03515625 108.29296875 C25.93440662 113.30948725 38.15852498 111.83292433 49.95043945 107.15234375 C59.52717479 102.45229098 66.27361843 94.83692637 73.5625 87.25 C75.53227557 85.21748966 77.50567902 83.18873693 79.48472595 81.16525269 C80.70720099 79.91356978 81.9238666 78.65618103 83.13404846 77.39260864 C84.55172394 75.93255604 86.0213137 74.52322895 87.5 73.125 C88.16 73.125 88.82 73.125 89.5 73.125 C94.47696858 95.77286106 88.5132763 119.66991773 76.5 139.125 C63.29820311 159.44317285 42.49666198 173.83558293 18.79516602 178.9934082 C2.52295941 182.05687155 -13.89661032 180.85355262 -29.5 175.4375 C-34.38823086 173.76941216 -34.38823086 173.76941216 -39.5 174.125 C-46.29460911 179.12279521 -52.11071627 185.59923501 -58.046875 191.55834961 C-59.08230953 192.5940668 -60.11796547 193.62956268 -61.15382385 194.66485596 C-63.94269389 197.4534411 -66.72848723 200.2450811 -69.51370621 203.03731227 C-72.43335731 205.96324846 -75.3558731 208.88632056 -78.27807617 211.80970764 C-83.8011706 217.33590026 -89.32171269 222.86463522 -94.84132481 228.39430577 C-101.12960731 234.69379653 -107.42075662 240.99042101 -113.71213913 247.28681552 C-126.64460111 260.22970764 -139.57348854 273.17616503 -152.5 286.125 C-153.93688649 285.66215999 -155.37241911 285.19511561 -156.80737305 284.72631836 C-157.60692917 284.46668808 -158.40648529 284.2070578 -159.23027039 283.93955994 C-174.79312182 278.35436811 -186.67401293 263.58209057 -193.5 249.125 C-194.18234338 247.13029402 -194.85142132 245.13093872 -195.5 243.125 C-194.92885751 242.56123185 -194.35771502 241.9974637 -193.76926517 241.41661167 C-179.8678875 227.69197593 -165.98876233 213.94520065 -152.13400364 200.17350101 C-145.43336975 193.51410248 -138.72543732 186.86238008 -131.99975586 180.22827148 C-126.1370576 174.44535837 -120.28860044 168.64847765 -114.45674652 162.83445448 C-111.36879591 159.75692547 -108.27421765 156.68680644 -105.16247749 153.63331795 C-102.23202443 150.75728107 -99.32102442 147.86289357 -96.42366791 144.95352936 C-95.35873935 143.89079656 -94.28696677 142.83486984 -93.20787621 141.78652 C-86.44993645 135.52197568 -86.44993645 135.52197568 -83.31187439 127.13499451 C-83.26882936 123.41703588 -84.04955573 120.19071997 -85.3125 116.6875 C-88.49557266 107.68986141 -89.85264704 99.21261868 -89.75 89.6875 C-89.74250732 88.76445068 -89.73501465 87.84140137 -89.72729492 86.89038086 C-89.35673216 63.44141789 -78.90967857 42.1922111 -62.87109375 25.3671875 C-45.70995454 9.03038248 -23.57735897 -0.08942108 0 0 Z " fill="#EEECFD" transform="translate(385.5,35.875)"/>
<path d="M0 0 C1.03382813 -0.01224609 2.06765625 -0.02449219 3.1328125 -0.03710938 C16.74661391 -0.06282814 16.74661391 -0.06282814 22.25 2.1875 C24.06511015 4.76296193 24.73068484 7.10145472 25.25 10.1875 C25.435625 11.05375 25.62125 11.92 25.8125 12.8125 C25.09468045 15.84329366 23.71852696 17.773367 21.4909668 19.92626953 C16.92439061 22.49636786 11.5502108 21.65916683 6.46157837 21.4102478 C2.96138019 21.2462776 -0.53945402 21.19401405 -4.04296875 21.15234375 C-5.0634304 21.13954124 -5.0634304 21.13954124 -6.10450745 21.1264801 C-13.88164991 21.08834373 -20.47478424 22.48905634 -27.75 25.1875 C-29.32974609 25.74824219 -29.32974609 25.74824219 -30.94140625 26.3203125 C-54.02153607 35.22222719 -69.34036272 50.69255834 -80.75 72.1875 C-81.36875 73.32445312 -81.36875 73.32445312 -82 74.484375 C-91.19445108 93.01694046 -91.89441994 117.67119597 -85.48632812 137.14892578 C-81.50628146 148.16795419 -76.22459991 158.12651273 -68.75 167.1875 C-68.08613281 168.02539062 -67.42226562 168.86328125 -66.73828125 169.7265625 C-52.72163774 186.46362666 -30.86889085 197.42746431 -9.19873047 199.42236328 C15.21284764 201.02421971 38.01735876 194.40490561 57.25 179.1875 C58.00539063 178.59582031 58.76078125 178.00414062 59.5390625 177.39453125 C73.91211753 165.41698539 82.77037537 148.1281749 87.25 130.1875 C87.42732666 129.53789307 87.60465332 128.88828613 87.78735352 128.21899414 C89.37715785 121.94618684 89.51689655 115.94783524 89.4375 109.5 C89.43685547 108.49388672 89.43621094 107.48777344 89.43554688 106.45117188 C89.41157938 102.4113181 89.35280472 98.69635467 88.55078125 94.7265625 C88.25 92.1875 88.25 92.1875 89.4375 90.03515625 C94.34325777 85.20340776 94.34325777 85.20340776 98.8125 85.125 C105.6875 87.25 105.6875 87.25 108.25 88.1875 C114.69882187 115.35566669 108.83538762 143.55329808 94.86328125 167.38671875 C79.2055518 192.60477277 53.89366249 211.16423289 25.00805664 218.16503906 C-5.25753112 224.63088291 -34.84188281 218.64526179 -60.75 202.1875 C-63.89677691 200.00521508 -66.84445474 197.68023555 -69.75 195.1875 C-70.57113281 194.48753906 -71.39226562 193.78757812 -72.23828125 193.06640625 C-93.81081756 174.17816126 -107.76442377 148.04343905 -109.97314453 119.28173828 C-111.61273787 87.73884081 -102.29079175 59.92937348 -81.375 36.0625 C-79.84894503 34.42283011 -78.30740065 32.79742681 -76.75 31.1875 C-76.03714844 30.44886719 -75.32429688 29.71023437 -74.58984375 28.94921875 C-58.94734507 13.84334096 -38.76960074 5.38711285 -17.75 1.1875 C-16.83734375 0.9915625 -15.9246875 0.795625 -14.984375 0.59375 C-9.99403661 -0.03305579 -5.02447866 0.00308629 0 0 Z " fill="#6279E2" transform="translate(255.75,145.8125)"/>
<path d="M0 0 C4.64987106 0.25522448 7.54070409 0.97370982 11.00048828 4.17285156 C11.6895929 4.8061438 12.37869751 5.43943604 13.08868408 6.09191895 C16.6270795 9.47541116 20.12505369 12.89265155 23.58203125 16.359375 C24.3428299 17.11921692 25.10362854 17.87905884 25.88748169 18.66192627 C27.48025236 20.25402134 29.07178061 21.84736026 30.66210938 23.44189453 C33.10042699 25.88560665 35.54408645 28.32388649 37.98828125 30.76171875 C39.54068564 32.31478331 41.09278015 33.8681577 42.64453125 35.421875 C43.37469452 36.15001404 44.10485779 36.87815308 44.85714722 37.62835693 C45.8692778 38.64521576 45.8692778 38.64521576 46.90185547 39.68261719 C47.79165604 40.57361115 47.79165604 40.57361115 48.69943237 41.48260498 C50.66177203 43.60937856 52.15116261 45.25305827 52.3671875 48.2109375 C51.98218735 52.31293914 51.49698787 54.70605873 49.15234375 58.1875 C46.15449379 60.16480529 44.03483918 61.1177325 40.40161133 60.83398438 C30.40296381 57.5922659 20.33185561 43.39246409 13.04394531 36.08447266 C10.69580675 33.7309191 8.34229915 31.38282777 5.98828125 29.03515625 C4.49056421 27.53677933 2.9931569 26.03809274 1.49609375 24.5390625 C0.79407837 23.83907135 0.09206299 23.1390802 -0.63122559 22.4178772 C-1.27950317 21.76644745 -1.92778076 21.1150177 -2.59570312 20.44384766 C-3.1651062 19.87364899 -3.73450928 19.30345032 -4.32116699 18.7159729 C-7.47264221 15.29114472 -8.26917429 12.7759298 -8.18359375 8.12890625 C-7.51791823 4.78094997 -5.35271941 3.19157523 -2.78515625 1.125 C-1.78515625 0.125 -1.78515625 0.125 0 0 Z " fill="#060607" transform="translate(333.78515625,125.875)"/>
</svg>
